# xmcd
#
# Track frame offsets: 
#        150
#        15921
#        28491
#        49338
#        72797
#        92985
#        112582
#        127227
#        141411
#        160698
#        179739
#        202908
#        216822
#        243646
#
# Disc length: 3455 seconds
#
# Revision: 0
# Processed by: cddbd v1.5.2PL0 Copyright (c) Steve Scherf et al.
# Submitted via: ExactAudioCopy v1.0b3
#
DISCID=cd0d7d0e
DTITLE=Dobre rano blues band - Bluesgrass
DYEAR=2014
DGENRE=Blues
TTITLE0=Good Mornig Little Schoolgirl
TTITLE1=Dobre rano blues
TTITLE2=See That My Grave Is Kept Clean
TTITLE3=In The Mood
TTITLE4=Got My Mojo Working
TTITLE5=Love In Vain
TTITLE6=Silver City Bound
TTITLE7=Song For Charles
TTITLE8=Key To The Highway
TTITLE9=My Babe
TTITLE10=Where Dit You Sleep Last Night
TTITLE11=Midnight Special
TTITLE12=I´m Your Hoochie Coochie Man
TTITLE13=Smokestack Lightning
EXTD=
EXTT0=
EXTT1=
EXTT2=
EXTT3=
EXTT4=
EXTT5=
EXTT6=
EXTT7=
EXTT8=
EXTT9=
EXTT10=
EXTT11=
EXTT12=
EXTT13=
PLAYORDER=
